<svg xmlns="http://www.w3.org/2000/svg" width="32" height="32" fill="none"><rect width="32" height="32" fill="#EEE" rx="8"/><path fill="#000" fill-rule="evenodd" d="m25.922 10.543 2.05 8.602a.577.577 0 0 1-.09.528.56.56 0 0 1-.481.217h-1.63c-.28 2.364-2.266 4.196-4.673 4.196-2.408 0-4.393-1.832-4.674-4.196h-.8c-.28 2.392-2.287 4.246-4.722 4.246-2.438 0-4.448-1.86-4.723-4.258h-1.59a.555.555 0 0 1-.469-.218.577.577 0 0 1-.097-.515l2.054-8.601c.142-.947 1.03-2.68 3.409-2.68a.59.59 0 0 1 .42.177.61.61 0 0 1 0 .855.59.59 0 0 1-.42.177c-1.915 0-2.212 1.503-2.236 1.668l-1.891 7.945h.827c.304-2.367 2.3-4.194 4.716-4.194 2.416 0 4.41 1.825 4.716 4.19l.813.003c.303-2.338 2.277-4.144 4.667-4.144 2.394 0 4.37 1.813 4.668 4.158v-.021h.87l-1.887-7.937c-.028-.165-.314-1.668-2.236-1.668a.59.59 0 0 1-.42-.177.61.61 0 0 1 0-.855.59.59 0 0 1 .42-.177c2.378 0 3.266 1.733 3.409 2.68Zm-11.48 9.347a3.702 3.702 0 0 0-.008-1.208c-.295-1.706-1.764-3.003-3.532-3.003s-3.238 1.298-3.532 3.006a3.709 3.709 0 0 0-.01 1.196c.27 1.738 1.753 3.068 3.542 3.068 1.787 0 3.268-1.325 3.54-3.059Zm10.147 0c.03-.188.045-.38.045-.576 0-1.98-1.583-3.586-3.536-3.586-1.954 0-3.537 1.605-3.537 3.586 0 .196.015.389.046.576.271 1.706 1.731 3.01 3.49 3.01 1.76 0 3.22-1.304 3.492-3.01Z" clip-rule="evenodd"/></svg>