<!-- SVG Sprite start -->
<!-- <svg style="display: none"> -->
<!-- <symbol viewBox="" id="facebook"></symbol> -->

<!-- How use in html -->
<!-- <svg class="htmlacademy__logo" width="27" height="34" role="img" aria-hidden="true"> -->
<!-- <use xlink:href="./img/sprite.svg#ico-htmlacademy"></use> -->
<!-- </svg> -->

<svg xmlns="http://www.w3.org/2000/svg">

<!-- html-academy -->
<symbol viewBox="0 0 27 34" id="ico-htmlacademy">
<path d="M13.643.016 13.5 0 0 1.407v24.606L13.5 34 27 26.013V1.407L13.643.016Zm11.591 25L13.5 31.956 1.766 25.015V14.93l11.685 6.916.02 1.253-8.017-4.743-.011 1.225 8.046 4.809.02 1.286-8.045-4.758-.01 1.226L13.5 26.95l8.124-4.833V16.91l3.62-2.15-.01 10.256Zm0-11.564-3.22 1.88-1.482.875-7.065-4.187-.011 1.225 6.04 3.573-.053.031-.13.076-.86.492-4.986-2.948-.011 1.225 3.936 2.328-.933.61-.021.012-2.971-1.742-.011 1.225 1.947 1.135-1.988 1.186-11.618-6.872 11.638-6.958 11.8 6.834Zm0-1.225L13.44 5.31 1.766 12.22V2.99L13.5 1.764 25.234 2.99v9.237Z" fill="currentColor" />
</symbol>

<!-- facebook -->
<symbol viewBox="0 0 9 17" id="ico-facebook">
<path fill="currentColor" d="M6.509 3.193H9V0H6.02C2.762.171 1.6 2.271 2.077 5.816H0v3.336h2.076V18h3.945V9.152h2.958V5.816H6.01c-.02-.998-.041-2.29.499-2.623Z"/>
</symbol>

<!-- twitter -->
<symbol viewBox="0 0 18 15" id="ico-twitter">
<path fill="currentColor" d="M11.564.169A3.675 3.675 0 0 1 13.672.14c.688.196 1.291.59 1.723 1.122.71-.21 1.41-.447 2.131-.656a2.03 2.03 0 0 1-.253.917c-.157.284-.38.533-.653.729.253.026.508-.002.747-.081.24-.08.456-.208.633-.376-.099.414-.3.801-.588 1.131-.287.33-.653.594-1.07.772-.247 6.27-3.367 10.467-10.689 10.296H5.15c-.443 0-4.418-.428-5.149-1.75 1.752.245 3.539-.147 4.984-1.095-1.03-.286-2.852-.447-3.161-2.74.388.133.81.163 1.215.085C1.76 7.705.34 7.039.422 4.993c.398.306.905.462 1.421.438C1.102 5.203-.247 2.31.896.825c1.926 1.723 3.964 3.35 7.59 3.512C8.711 2.205 9.69.777 11.563.169Z"/>
</symbol>

<!-- youtube -->
<symbol viewBox="0 0 15 13" id="ico-youtube">
<path fill="currentColor" d="M1.834 12.809a1.257 1.257 0 0 1-1.285.03 1.097 1.097 0 0 1-.443-.457.97.97 0 0 1-.092-.603V1.221A.97.97 0 0 1 .106.618C.2.429.355.27.549.16a1.256 1.256 0 0 1 1.285.031l12.4 5.502c1.022.445 1.022 1.169 0 1.614l-12.4 5.502Z"/>
</symbol>

<!-- crop -->
<symbol viewBox="0 0 44 44" id="ico-crop">
<path fill="currentColor" d="M32 28h4V12a4 4 0 0 0-4-4H16v4h16v16Zm-20 4V0H8v8H0v4h8v20a4 4 0 0 0 4 4h20v8h4v-8h8v-4H12Z"/>
</symbol>

<!-- fill -->
<symbol viewBox="0 0 48 43" id="ico-fill">
<path fill="currentColor" d="M33.12 17.88 15.24 0l-2.83 2.83 4.76 4.76L6.88 17.88a3 3 0 0 0 0 4.24l11 11a3 3 0 0 0 4.24 0l11-11a3 3 0 0 0 0-4.24ZM10.41 20 20 10.42 29.59 20H10.41ZM38 23s-4 4.33-4 7a4 4 0 1 0 8 0c0-2.67-4-7-4-7ZM48 40H0v3h48v-3Z"/>
</symbol>

<!-- contrast -->
<symbol viewBox="0 0 32 32" id="ico-contrast">
<path fill="currentColor" d="M16 4a12 12 0 1 1 0 24 12 12 0 0 1 0-24Zm0-4a16 16 0 1 0 0 32 16 16 0 0 0 0-32Z"/><path fill="currentColor" d="M16 24.29a8.52 8.52 0 0 0 0-17"/>
</symbol>


</svg>
