<svg xmlns="http://www.w3.org/2000/svg" width="238" height="276" fill="none"><path fill="#DEDEDE" d="m211.314 81.628 4.273-4.287c6.165-6.175 7.291-15.148 2.499-19.94-4.792-4.79-13.752-3.678-19.91 2.496l-4.305 4.311a118.265 118.265 0 0 0-59.684-25.578v-7.67h6.118c8.714 0 15.846-6.966 15.846-15.476 0-8.51-7.132-15.484-15.846-15.484H97.721c-8.714 0-15.846 6.966-15.846 15.484S89.008 30.96 97.722 30.96h6.118v7.67a118.935 118.935 0 0 0-69.052 34A119.238 119.238 0 0 0 .946 141.836a119.313 119.313 0 0 0 15.518 75.474 119.047 119.047 0 0 0 58.389 50.187 118.839 118.839 0 0 0 76.847 3.916 118.988 118.988 0 0 0 63.175-43.991 119.28 119.28 0 0 0 23.089-73.506 119.27 119.27 0 0 0-26.65-72.287Zm-92.301 163.319a87.901 87.901 0 0 1-48.884-14.85 88.092 88.092 0 0 1-32.407-39.546 88.23 88.23 0 0 1-5.006-50.911A88.153 88.153 0 0 1 56.8 94.524a87.95 87.95 0 0 1 45.053-24.113 87.87 87.87 0 0 1 50.838 5.017 88.012 88.012 0 0 1 39.486 32.457 88.197 88.197 0 0 1 14.825 48.956 88.177 88.177 0 0 1-25.774 62.301 87.923 87.923 0 0 1-62.214 25.805Z"/></svg>