<svg xmlns="http://www.w3.org/2000/svg" width="238" height="276" fill="none"><path fill="#DEDEDE" d="m211.31 81.63 4.28-4.29c6.16-6.17 7.29-15.15 2.5-19.94-4.8-4.79-13.76-3.68-19.91 2.5l-4.3 4.3a118.27 118.27 0 0 0-59.7-25.57v-7.67h6.13c8.7 0 15.84-6.97 15.84-15.48 0-8.5-7.13-15.48-15.84-15.48H97.72c-8.71 0-15.84 6.97-15.84 15.48 0 8.52 7.13 15.48 15.84 15.48h6.12v7.67a118.94 118.94 0 0 0-69.05 34 119.31 119.31 0 0 0-18.32 144.68 119.05 119.05 0 0 0 58.38 50.19 118.84 118.84 0 0 0 76.85 3.91 118.99 118.99 0 0 0 63.18-43.99 119.28 119.28 0 0 0-3.57-145.8Zm-92.3 163.32a87.9 87.9 0 0 1-48.88-14.85A88.23 88.23 0 0 1 56.8 94.53a87.95 87.95 0 0 1 95.89-19.1 88.01 88.01 0 0 1 39.49 32.45 88.2 88.2 0 0 1-10.95 111.26 87.92 87.92 0 0 1-62.22 25.8Z"/><circle cx="119" cy="157" r="93" stroke="#D22856" stroke-width="16"/><path fill="#D22856" d="M115.9 191H68v-10.08l17.2-17.39c5.1-5.22 8.42-8.83 9.99-10.83a24.27 24.27 0 0 0 3.37-5.62c.69-1.72 1.03-3.5 1.03-5.35 0-2.75-.76-4.8-2.3-6.14-1.5-1.34-3.5-2.01-6.04-2.01-2.66 0-5.23.6-7.73 1.83a39.92 39.92 0 0 0-7.83 5.2l-7.88-9.33c3.38-2.87 6.17-4.9 8.4-6.1a30.07 30.07 0 0 1 7.26-2.71c2.62-.66 5.56-.99 8.81-.99 4.28 0 8.06.79 11.34 2.35a18.1 18.1 0 0 1 7.65 6.56 17.43 17.43 0 0 1 2.71 9.66c0 3.15-.56 6.12-1.68 8.9a33.4 33.4 0 0 1-5.16 8.49c-2.31 2.9-6.4 7.04-12.28 12.42l-8.81 8.3v.65h29.86V191Zm56.4-14.2h-8.25V191h-14.16v-14.2h-29.25v-10.08l30.05-44.25h13.36v43.08h8.25v11.25Zm-22.4-11.25v-11.63c0-1.94.07-4.75.22-8.44.16-3.68.29-5.82.38-6.42h-.38a52.2 52.2 0 0 1-4.17 7.5l-12.56 18.99h16.5Z"/></svg>